<?xml version="1.0" standalone="no"?>
<!DOCTYPE svg PUBLIC "-//W3C//DTD SVG 20010904//EN"
 "http://www.w3.org/TR/2001/REC-SVG-20010904/DTD/svg10.dtd">
<svg version="1.0" xmlns="http://www.w3.org/2000/svg"
 width="512.000000pt" height="512.000000pt" viewBox="0 0 512.000000 512.000000"
 preserveAspectRatio="xMidYMid meet">
<metadata>
Created by potrace 1.14, written by Peter Selinger 2001-2017
</metadata>
<g transform="translate(0.000000,512.000000) scale(0.100000,-0.100000)"
fill="#000000" stroke="none">
<path d="M233 5104 c-66 -24 -129 -86 -167 -167 -61 -130 -65 -166 -63 -603 2
-379 3 -393 23 -420 39 -53 66 -66 145 -68 100 -3 115 1 159 43 31 30 39 46
49 101 13 74 33 108 82 133 31 16 73 17 509 15 l475 -3 0 -1820 c0 -1803 0
-1820 -20 -1860 -23 -45 -65 -73 -115 -76 -50 -3 -107 -37 -125 -75 -24 -50
-21 -197 5 -239 42 -67 11 -65 805 -65 787 0 750 -3 796 61 19 27 23 46 23
118 1 137 -31 183 -138 201 -67 11 -99 31 -120 75 -14 28 -16 68 -14 245 l3
211 73 25 c85 28 137 59 205 123 169 156 226 422 136 627 -21 46 -394 692
-410 709 -5 5 -9 48 -9 97 l0 87 47 -17 c59 -21 125 -85 153 -149 168 -375
381 -679 717 -1020 113 -115 185 -154 299 -161 93 -6 120 3 393 130 119 55
243 113 276 128 33 15 110 51 170 80 61 28 155 72 210 98 151 70 184 93 241
167 89 116 93 259 18 700 -35 209 -118 488 -203 683 -92 213 -235 449 -298
492 -58 40 -136 35 -238 -14 -99 -48 -223 -106 -295 -139 -69 -32 -191 -88
-295 -137 -166 -78 -382 -178 -435 -203 -30 -14 -137 -63 -236 -110 -100 -47
-214 -100 -255 -118 -40 -19 -116 -55 -168 -80 -53 -26 -97 -45 -99 -44 -2 2
-3 561 -2 1148 l0 127 469 0 c382 0 475 -3 502 -14 57 -24 85 -65 94 -140 11
-99 78 -146 200 -142 84 3 125 22 156 72 22 37 23 41 23 383 1 190 -2 380 -7
421 -7 75 -36 179 -64 233 -23 45 -93 116 -138 140 l-40 22 -1730 2 c-1505 1
-1735 0 -1772 -13z"/>
</g>
</svg>
